<svg width="88" height="96" viewBox="0 0 88 96" fill="none" xmlns="http://www.w3.org/2000/svg">
<path d="M45.9574 19.3275C47.289 19.9768 48.5639 20.7094 49.8426 21.4565C50.2203 21.6737 50.5981 21.8909 50.9873 22.1146C52.1838 22.804 53.3772 23.4984 54.5702 24.1938C55.3196 24.6287 56.069 25.0634 56.8185 25.4981C58.6774 26.5784 60.5333 27.6637 62.3885 28.7503C64.4617 29.9637 66.5374 31.1727 68.6128 32.3823C69.3734 32.8259 70.1341 33.2694 70.8947 33.713C71.214 33.8992 71.5333 34.0854 71.8623 34.2772C72.2001 34.4742 72.2001 34.4742 72.5447 34.6751C72.0993 36.0107 71.8558 36.0825 70.6592 36.7266C70.3563 36.8919 70.0534 37.0572 69.7413 37.2274C69.4229 37.3966 69.1046 37.5657 68.7766 37.74C68.4568 37.9134 68.137 38.0869 67.8075 38.2656C67.0166 38.6941 66.224 39.1192 65.4298 39.5414C65.9333 40.6563 66.4968 41.4566 67.346 42.3343C67.687 42.6918 67.687 42.6918 68.035 43.0566C68.3905 43.4243 68.3905 43.4243 68.7532 43.7994C69.2219 44.2844 69.689 44.7708 70.1545 45.2588C70.3615 45.4727 70.5686 45.6866 70.7819 45.9071C71.5792 46.8382 72.239 47.8799 72.9192 48.8997C70.5712 50.2585 68.2233 51.6174 65.8043 53.0174C67.4849 55.2574 68.9837 56.985 70.9824 58.859C71.8022 59.7624 72.1761 60.4746 72.5447 61.627C69.2648 63.71 65.9072 65.6348 62.5196 67.5364C59.7846 69.0742 57.0681 70.6412 54.3596 72.2252C53.7955 72.554 53.7955 72.554 53.22 72.8894C51.6073 73.8298 49.9974 74.7735 48.3988 75.7375C48.0339 75.9544 48.0339 75.9544 47.6617 76.1757C47.043 76.5437 46.4269 76.9161 45.8112 77.289C44.6708 77.7958 44.4782 77.7487 43.3362 77.3489C42.6228 76.9798 41.9203 76.5893 41.2254 76.1864C40.8052 75.9443 40.3849 75.7021 39.952 75.4527C39.7293 75.3233 39.5067 75.1939 39.2773 75.0606C38.0959 74.3741 36.9111 73.6935 35.7269 73.0119C35.4856 72.8729 35.2444 72.7338 34.9958 72.5905C32.6621 71.2467 30.3124 69.9323 27.9596 68.6223C24.0739 66.4558 20.2164 64.2443 16.3745 62.0013C16.8267 60.6452 17.1303 60.5497 18.3419 59.8679C18.6617 59.6858 18.9815 59.5036 19.311 59.3159C19.6472 59.1289 19.9834 58.942 20.3298 58.7493C20.6674 58.558 21.0051 58.3667 21.353 58.1695C22.1883 57.6968 23.0252 57.2274 23.8638 56.7607C22.1628 54.7067 20.3358 52.842 18.4026 51.0075C18.1943 50.8046 17.986 50.6017 17.7714 50.3927C17.4899 50.1236 17.4899 50.1236 17.2027 49.8492C16.6705 49.1746 16.5267 48.6147 16.3745 47.7767C17.4808 47.1503 18.5891 46.5273 19.6979 45.9051C20.0131 45.7265 20.3283 45.548 20.6531 45.364C20.9548 45.1951 21.2564 45.0263 21.5673 44.8523C21.8458 44.6954 22.1242 44.5386 22.4111 44.377C23.1149 44.0334 23.1149 44.0334 23.8638 44.0334C21.8537 41.4804 19.8032 39.1578 17.4496 36.9196C16.7489 36.1724 16.7489 36.1724 16.7489 35.4238C16.5018 35.3002 16.2546 35.1767 16 35.0494C20.6343 32.2286 25.3351 29.5252 30.0385 26.8216C31.3776 26.0518 32.7156 25.2802 34.0535 24.5082C34.2736 24.3812 34.4938 24.2541 34.7206 24.1233C35.3691 23.7491 36.0175 23.3749 36.666 23.0006C39.0055 21.6507 39.0055 21.6507 40.1259 21.0115C40.7139 20.6692 41.2961 20.3165 41.867 19.9466C43.4087 18.9614 44.2154 18.728 45.9574 19.3275Z" fill="black"/>
<path d="M45.9574 19.3275C47.289 19.9768 48.5639 20.7094 49.8426 21.4565C50.2203 21.6737 50.5981 21.8909 50.9873 22.1146C52.1838 22.804 53.3772 23.4984 54.5702 24.1938C55.3196 24.6287 56.069 25.0634 56.8185 25.4981C58.6774 26.5784 60.5333 27.6637 62.3885 28.7503C64.4617 29.9637 66.5374 31.1727 68.6128 32.3823C69.3734 32.8259 70.1341 33.2694 70.8947 33.713C71.214 33.8992 71.5333 34.0854 71.8623 34.2772C72.2001 34.4742 72.2001 34.4742 72.5447 34.6751C72.0783 36.0737 71.7357 36.1384 70.4573 36.8012C70.0955 36.992 69.7337 37.1828 69.361 37.3794C68.9673 37.5833 68.5737 37.7872 68.1681 37.9973C65.0922 39.6255 62.0523 41.2905 59.0638 43.0742C58.5692 43.3689 58.5692 43.3689 58.0646 43.6696C57.3848 44.075 56.7053 44.4807 56.0258 44.8866C54.0402 46.0696 52.0474 47.24 50.0532 48.4084C49.6721 48.6332 49.291 48.8581 48.8983 49.0897C48.5414 49.2987 48.1844 49.5077 47.8166 49.7229C47.5023 49.9076 47.1881 50.0923 46.8643 50.2825C45.0326 51.2699 45.0326 51.2699 44.0851 51.52C43.1333 51.1787 43.1333 51.1787 42.1148 50.5623C41.7315 50.3354 41.3483 50.1085 40.9535 49.8747C40.3372 49.4963 40.3372 49.4963 39.7085 49.1103C39.2754 48.8511 38.8419 48.5926 38.4079 48.3348C37.5045 47.7974 36.6029 47.2569 35.7025 46.7144C33.601 45.4524 31.4684 44.2441 29.3404 43.0274C19.3146 37.2584 19.3146 37.2584 16 35.0494C20.6343 32.2286 25.3351 29.5252 30.0385 26.8216C31.3776 26.0518 32.7156 25.2802 34.0535 24.5082C34.2736 24.3812 34.4938 24.2541 34.7206 24.1233C35.3691 23.7491 36.0175 23.3749 36.666 23.0006C39.0055 21.6507 39.0055 21.6507 40.1259 21.0115C40.7139 20.6692 41.2961 20.3165 41.867 19.9466C43.4087 18.9614 44.2154 18.728 45.9574 19.3275Z" fill="#525252"/>
<path d="M24.676 57.0421C25.5334 57.6256 26.1178 58.2856 26.7899 59.0767C28.5386 61.074 30.3965 62.9397 32.2925 64.7972C33.4422 65.9309 34.548 67.0781 35.6001 68.3033C37.2047 70.1631 38.9471 71.8783 40.692 73.6054C41.0195 73.9311 41.3471 74.2568 41.6845 74.5924C42.484 75.3873 43.2844 76.1812 44.0856 76.9744C43.7149 77.1597 43.7149 77.1597 43.3367 77.3487C42.4377 76.9246 42.4377 76.9246 41.2991 76.2594C40.8764 76.0148 40.4538 75.7702 40.0183 75.5183C39.5564 75.2472 39.0944 74.9761 38.6324 74.705C37.9167 74.2894 37.2002 73.8749 36.4838 73.4605C35.9942 73.1772 35.5048 72.8936 35.0157 72.6096C32.6785 71.2541 30.3214 69.9353 27.9601 68.6221C24.0744 66.4558 20.2169 64.2441 16.375 62.0011C16.9826 60.1791 18.6289 59.6314 20.2367 58.7023C20.7244 58.4059 20.7244 58.4059 21.2219 58.1035C21.5364 57.9204 21.8508 57.7373 22.1749 57.5486C22.4627 57.3793 22.7506 57.2101 23.0471 57.0357C23.8644 56.7605 23.8644 56.7605 24.676 57.0421Z" fill="#525252"/>
<path d="M23.8644 43.6592C26.1849 45.6475 28.3204 47.5909 30.3005 49.9058C31.4646 51.2586 32.706 52.5132 33.975 53.7661C35.1972 54.973 36.3972 56.175 37.509 57.4861C39.4307 59.7479 41.5995 61.7908 43.7112 63.8731C42.3971 63.8731 41.9464 63.5753 40.8281 62.9109C40.2947 62.5968 40.2947 62.5968 39.7505 62.2762C39.3661 62.0466 38.9817 61.8169 38.5856 61.5803C37.766 61.0962 36.9464 60.6122 36.1267 60.1283C35.7067 59.8793 35.2867 59.6302 34.8539 59.3736C33.2979 58.4535 31.7358 57.5438 30.1728 56.6356C29.0627 55.9903 27.954 55.3427 26.8455 54.6946C25.3053 53.7944 23.7621 52.8995 22.2173 52.0071C21.4556 51.5641 20.694 51.1211 19.9324 50.6779C19.5742 50.4723 19.216 50.2667 18.8469 50.0549C18.5216 49.8648 18.1963 49.6747 17.8612 49.4789C17.5732 49.3123 17.2853 49.1457 16.9886 48.974C16.7861 48.826 16.5836 48.678 16.375 48.5255C16.375 48.2784 16.375 48.0314 16.375 47.7768C18.8465 46.418 21.318 45.0592 23.8644 43.6592Z" fill="#525252"/>
</svg>
