<svg width="172" height="89" viewBox="0 0 172 89" fill="none" xmlns="http://www.w3.org/2000/svg">
<path d="M1.24023 76.2754C1.24023 75.1882 1.44531 74.1758 1.85547 73.2383C2.26562 72.2943 2.85807 71.4772 3.63281 70.7871C4.41406 70.0905 5.36458 69.5436 6.48438 69.1465C7.61068 68.7493 8.88346 68.5508 10.3027 68.5508C11.5462 68.5508 12.6855 68.6777 13.7207 68.9316C14.7624 69.179 15.7292 69.5599 16.6211 70.0742L15.1953 72.418C14.9284 72.2422 14.6191 72.0859 14.2676 71.9492C13.9225 71.8125 13.5514 71.6986 13.1543 71.6074C12.7637 71.5098 12.3568 71.4349 11.9336 71.3828C11.5169 71.3307 11.1035 71.3047 10.6934 71.3047C9.70378 71.3047 8.82161 71.4284 8.04688 71.6758C7.27214 71.9167 6.61784 72.2585 6.08398 72.7012C5.55664 73.1374 5.15299 73.6615 4.87305 74.2734C4.59961 74.8789 4.46289 75.5462 4.46289 76.2754C4.46289 77.0306 4.60612 77.724 4.89258 78.3555C5.17904 78.987 5.59245 79.5339 6.13281 79.9961C6.67969 80.4518 7.34375 80.8099 8.125 81.0703C8.91276 81.3242 9.80143 81.4512 10.791 81.4512C11.2402 81.4512 11.6862 81.4186 12.1289 81.3535C12.5716 81.2884 12.998 81.2005 13.4082 81.0898C13.8249 80.9727 14.2253 80.8359 14.6094 80.6797C14.9935 80.5169 15.3516 80.3411 15.6836 80.1523L17.1094 82.4961C16.276 83.0299 15.3125 83.4499 14.2188 83.7559C13.125 84.0553 11.9629 84.2051 10.7324 84.2051C9.16341 84.2051 7.78646 84.0033 6.60156 83.5996C5.41667 83.1895 4.42708 82.6296 3.63281 81.9199C2.83854 81.2038 2.23958 80.3639 1.83594 79.4004C1.4388 78.4303 1.24023 77.3887 1.24023 76.2754ZM19.4727 78.2383C19.4727 77.4115 19.6387 76.6367 19.9707 75.9141C20.3092 75.1914 20.7878 74.5599 21.4062 74.0195C22.0312 73.4792 22.7832 73.0527 23.6621 72.7402C24.5475 72.4277 25.5404 72.2715 26.6406 72.2715C27.7409 72.2715 28.7305 72.4277 29.6094 72.7402C30.4948 73.0527 31.2467 73.4792 31.8652 74.0195C32.4902 74.5599 32.9688 75.1914 33.3008 75.9141C33.6393 76.6367 33.8086 77.4115 33.8086 78.2383C33.8086 79.0651 33.6393 79.8398 33.3008 80.5625C32.9688 81.2852 32.4902 81.9167 31.8652 82.457C31.2467 82.9974 30.4948 83.4238 29.6094 83.7363C28.7305 84.0488 27.7409 84.2051 26.6406 84.2051C25.5404 84.2051 24.5475 84.0488 23.6621 83.7363C22.7832 83.4238 22.0312 82.9974 21.4062 82.457C20.7878 81.9167 20.3092 81.2852 19.9707 80.5625C19.6387 79.8398 19.4727 79.0651 19.4727 78.2383ZM22.5098 78.2383C22.5098 78.7005 22.6009 79.14 22.7832 79.5566C22.972 79.9668 23.2422 80.3314 23.5938 80.6504C23.9518 80.9629 24.3848 81.2135 24.8926 81.4023C25.4069 81.5846 25.9896 81.6758 26.6406 81.6758C27.2917 81.6758 27.8711 81.5846 28.3789 81.4023C28.8932 81.2135 29.3262 80.9629 29.6777 80.6504C30.0358 80.3314 30.306 79.9668 30.4883 79.5566C30.6771 79.14 30.7715 78.7005 30.7715 78.2383C30.7715 77.776 30.6771 77.3366 30.4883 76.9199C30.306 76.5033 30.0358 76.1387 29.6777 75.8262C29.3262 75.5072 28.8932 75.2565 28.3789 75.0742C27.8711 74.8854 27.2917 74.791 26.6406 74.791C25.9896 74.791 25.4069 74.8854 24.8926 75.0742C24.3848 75.2565 23.9518 75.5072 23.5938 75.8262C23.2422 76.1387 22.972 76.5033 22.7832 76.9199C22.6009 77.3366 22.5098 77.776 22.5098 78.2383ZM36.8066 72.4766H39.6973V73.4531C40.4199 73.0104 41.123 72.7044 41.8066 72.5352C42.4967 72.3594 43.1706 72.2715 43.8281 72.2715C44.7461 72.2715 45.5892 72.418 46.3574 72.7109C47.1257 73.0039 47.7832 73.4466 48.3301 74.0391C48.7533 73.7135 49.1699 73.4401 49.5801 73.2188C49.9902 72.9909 50.4004 72.8086 50.8105 72.6719C51.2207 72.5286 51.6374 72.4277 52.0605 72.3691C52.4837 72.304 52.9199 72.2715 53.3691 72.2715C54.3132 72.2715 55.1693 72.4017 55.9375 72.6621C56.7057 72.916 57.36 73.2969 57.9004 73.8047C58.4473 74.3125 58.8672 74.9473 59.1602 75.709C59.4596 76.4642 59.6094 77.3398 59.6094 78.3359V84H56.7285V78.8047C56.7285 78.1732 56.6374 77.61 56.4551 77.1152C56.2793 76.6139 56.0286 76.194 55.7031 75.8555C55.3841 75.5104 55 75.25 54.5508 75.0742C54.1081 74.8919 53.6198 74.8008 53.0859 74.8008C52.793 74.8008 52.4935 74.8301 52.1875 74.8887C51.8815 74.9408 51.582 75.0254 51.2891 75.1426C51.0026 75.2598 50.7324 75.4095 50.4785 75.5918C50.2246 75.7676 50.0033 75.9759 49.8145 76.2168V84H46.9336V78.8047C46.9336 78.1732 46.8424 77.61 46.6602 77.1152C46.4844 76.6139 46.2337 76.194 45.9082 75.8555C45.5892 75.5104 45.2018 75.25 44.7461 75.0742C44.2969 74.8919 43.8021 74.8008 43.2617 74.8008C42.9297 74.8008 42.5944 74.8366 42.2559 74.9082C41.9238 74.9733 41.6016 75.0677 41.2891 75.1914C40.9831 75.3151 40.6934 75.4648 40.4199 75.6406C40.153 75.8164 39.9121 76.015 39.6973 76.2363V84H36.8066V72.4766ZM66.0645 88.707H63.1738V72.4766H66.0645V73.5605C66.3184 73.3848 66.6178 73.2188 66.9629 73.0625C67.3079 72.9062 67.679 72.7695 68.0762 72.6523C68.4733 72.5352 68.8835 72.444 69.3066 72.3789C69.7298 72.3073 70.153 72.2715 70.5762 72.2715C71.5527 72.2715 72.4479 72.4147 73.2617 72.7012C74.082 72.9876 74.7852 73.3913 75.3711 73.9121C75.957 74.4329 76.4128 75.0579 76.7383 75.7871C77.0703 76.5098 77.2363 77.3105 77.2363 78.1895C77.2363 79.1074 77.0638 79.9375 76.7188 80.6797C76.3737 81.4154 75.8952 82.0469 75.2832 82.5742C74.6777 83.0951 73.9551 83.4987 73.1152 83.7852C72.2819 84.0651 71.377 84.2051 70.4004 84.2051C69.9837 84.2051 69.5703 84.179 69.1602 84.127C68.7565 84.0749 68.3659 84.0033 67.9883 83.9121C67.6172 83.821 67.2656 83.7135 66.9336 83.5898C66.6081 83.4596 66.3184 83.3197 66.0645 83.1699V88.707ZM66.0645 80.377C66.3574 80.6113 66.6667 80.8099 66.9922 80.9727C67.3177 81.1354 67.6497 81.2689 67.9883 81.373C68.3268 81.4772 68.6686 81.5553 69.0137 81.6074C69.3587 81.653 69.694 81.6758 70.0195 81.6758C70.6836 81.6758 71.2728 81.5879 71.7871 81.4121C72.3079 81.2298 72.7441 80.9824 73.0957 80.6699C73.4538 80.3574 73.7272 79.9896 73.916 79.5664C74.1048 79.1432 74.1992 78.6842 74.1992 78.1895C74.1992 77.7272 74.1048 77.291 73.916 76.8809C73.7337 76.4707 73.4668 76.1126 73.1152 75.8066C72.7702 75.4941 72.3503 75.25 71.8555 75.0742C71.3672 74.8919 70.8171 74.8008 70.2051 74.8008C69.8145 74.8008 69.4238 74.8398 69.0332 74.918C68.6426 74.9896 68.265 75.0938 67.9004 75.2305C67.5423 75.3672 67.2038 75.5332 66.8848 75.7285C66.5723 75.9238 66.2988 76.1419 66.0645 76.3828V80.377ZM79.9707 72.4668H82.8516V78.0918C82.8516 78.6257 82.9102 79.1139 83.0273 79.5566C83.1445 79.9928 83.3431 80.3672 83.623 80.6797C83.9095 80.9922 84.2871 81.2363 84.7559 81.4121C85.2311 81.5814 85.8203 81.666 86.5234 81.666C86.8555 81.666 87.1908 81.6302 87.5293 81.5586C87.8743 81.487 88.2031 81.3893 88.5156 81.2656C88.8281 81.1354 89.1178 80.9824 89.3848 80.8066C89.6582 80.6309 89.8926 80.4388 90.0879 80.2305V72.4668H92.9785V84H90.0879V83.0137C89.3783 83.4368 88.6654 83.7396 87.9492 83.9219C87.2331 84.1042 86.5527 84.1953 85.9082 84.1953C84.8535 84.1953 83.9486 84.0684 83.1934 83.8145C82.4447 83.5605 81.8294 83.1927 81.3477 82.7109C80.8724 82.2227 80.5241 81.627 80.3027 80.9238C80.0814 80.2142 79.9707 79.4069 79.9707 78.502V72.4668ZM97.7246 79.459C98.278 79.7715 98.8379 80.0547 99.4043 80.3086C99.9772 80.556 100.57 80.7676 101.182 80.9434C101.794 81.1126 102.435 81.2428 103.105 81.334C103.783 81.4251 104.502 81.4707 105.264 81.4707C106.182 81.4707 106.963 81.4121 107.607 81.2949C108.252 81.1712 108.776 81.0052 109.18 80.7969C109.59 80.582 109.886 80.3281 110.068 80.0352C110.257 79.7422 110.352 79.4232 110.352 79.0781C110.352 78.5247 110.12 78.0885 109.658 77.7695C109.196 77.444 108.483 77.2812 107.52 77.2812C107.096 77.2812 106.65 77.3105 106.182 77.3691C105.713 77.4212 105.238 77.4798 104.756 77.5449C104.281 77.61 103.809 77.6719 103.34 77.7305C102.878 77.7826 102.441 77.8086 102.031 77.8086C101.348 77.8086 100.69 77.7207 100.059 77.5449C99.4336 77.3691 98.877 77.1055 98.3887 76.7539C97.9069 76.4023 97.5228 75.9629 97.2363 75.4355C96.9499 74.9082 96.8066 74.293 96.8066 73.5898C96.8066 73.1732 96.862 72.7598 96.9727 72.3496C97.0898 71.9395 97.2721 71.5488 97.5195 71.1777C97.7734 70.8001 98.099 70.4518 98.4961 70.1328C98.8932 69.8073 99.3717 69.5273 99.9316 69.293C100.498 69.0586 101.149 68.8763 101.885 68.7461C102.627 68.6094 103.47 68.541 104.414 68.541C105.098 68.541 105.785 68.5801 106.475 68.6582C107.165 68.7298 107.835 68.834 108.486 68.9707C109.144 69.1074 109.775 69.2734 110.381 69.4688C110.986 69.6576 111.549 69.8691 112.07 70.1035L110.713 72.6035C110.283 72.4147 109.821 72.2422 109.326 72.0859C108.831 71.9232 108.314 71.7832 107.773 71.666C107.233 71.5488 106.673 71.4577 106.094 71.3926C105.521 71.321 104.935 71.2852 104.336 71.2852C103.483 71.2852 102.78 71.347 102.227 71.4707C101.68 71.5944 101.243 71.7539 100.918 71.9492C100.592 72.138 100.365 72.3529 100.234 72.5938C100.111 72.8281 100.049 73.0625 100.049 73.2969C100.049 73.7526 100.254 74.127 100.664 74.4199C101.074 74.7064 101.699 74.8496 102.539 74.8496C102.878 74.8496 103.265 74.8268 103.701 74.7812C104.144 74.7292 104.606 74.6738 105.088 74.6152C105.576 74.5566 106.071 74.5046 106.572 74.459C107.08 74.4069 107.572 74.3809 108.047 74.3809C108.945 74.3809 109.74 74.4818 110.43 74.6836C111.126 74.8854 111.709 75.1751 112.178 75.5527C112.646 75.9238 113.001 76.3763 113.242 76.9102C113.483 77.4375 113.604 78.0299 113.604 78.6875C113.604 79.5664 113.398 80.3509 112.988 81.041C112.585 81.7246 112.005 82.304 111.25 82.7793C110.501 83.248 109.596 83.6061 108.535 83.8535C107.474 84.0944 106.292 84.2148 104.99 84.2148C104.131 84.2148 103.291 84.1595 102.471 84.0488C101.65 83.9447 100.863 83.7949 100.107 83.5996C99.3587 83.3978 98.6426 83.1602 97.959 82.8867C97.2819 82.6068 96.6536 82.3008 96.0742 81.9688L97.7246 79.459ZM118.389 74.6445H115.605V72.4766H118.389V68.8926H121.279V72.4766H124.062V74.6445H121.279V84H118.389V74.6445ZM126.084 80.3672C126.084 79.8138 126.204 79.3092 126.445 78.8535C126.686 78.3978 127.048 78.0072 127.529 77.6816C128.011 77.3496 128.61 77.0957 129.326 76.9199C130.049 76.7376 130.889 76.6465 131.846 76.6465C132.555 76.6465 133.301 76.6986 134.082 76.8027C134.87 76.9069 135.68 77.0664 136.514 77.2812C136.481 76.9167 136.37 76.5814 136.182 76.2754C135.993 75.9629 135.729 75.696 135.391 75.4746C135.059 75.2467 134.655 75.071 134.18 74.9473C133.711 74.8236 133.177 74.7617 132.578 74.7617C132.253 74.7617 131.895 74.7812 131.504 74.8203C131.113 74.8594 130.71 74.918 130.293 74.9961C129.876 75.0742 129.463 75.1719 129.053 75.2891C128.649 75.4062 128.271 75.5462 127.92 75.709L127.041 73.3359C127.477 73.1797 127.943 73.0365 128.438 72.9062C128.939 72.776 129.45 72.6654 129.971 72.5742C130.492 72.4766 131.012 72.4017 131.533 72.3496C132.054 72.2975 132.559 72.2715 133.047 72.2715C135.202 72.2715 136.803 72.8216 137.852 73.9219C138.9 75.0221 139.424 76.7083 139.424 78.9805V84H136.533V82.916C136.234 83.0918 135.905 83.2578 135.547 83.4141C135.195 83.5703 134.811 83.707 134.395 83.8242C133.978 83.9414 133.529 84.0326 133.047 84.0977C132.572 84.1693 132.067 84.2051 131.533 84.2051C130.635 84.2051 129.844 84.1074 129.16 83.9121C128.483 83.7168 127.917 83.4466 127.461 83.1016C127.005 82.7565 126.66 82.3529 126.426 81.8906C126.198 81.4219 126.084 80.9141 126.084 80.3672ZM129.131 80.2695C129.131 80.4583 129.18 80.6406 129.277 80.8164C129.375 80.9857 129.531 81.1387 129.746 81.2754C129.961 81.4056 130.234 81.513 130.566 81.5977C130.905 81.6758 131.312 81.7148 131.787 81.7148C132.295 81.7148 132.786 81.6693 133.262 81.5781C133.737 81.487 134.18 81.3665 134.59 81.2168C135 81.0671 135.371 80.8945 135.703 80.6992C136.035 80.5039 136.312 80.3021 136.533 80.0938V79.5859C136.09 79.4622 135.651 79.3581 135.215 79.2734C134.785 79.1888 134.372 79.1237 133.975 79.0781C133.584 79.026 133.213 78.9902 132.861 78.9707C132.516 78.9512 132.214 78.9414 131.953 78.9414C131.413 78.9414 130.964 78.9772 130.605 79.0488C130.247 79.1204 129.958 79.2181 129.736 79.3418C129.515 79.459 129.359 79.599 129.268 79.7617C129.176 79.9245 129.131 80.0938 129.131 80.2695ZM142.559 78.2676C142.559 77.4212 142.712 76.6335 143.018 75.9043C143.33 75.1686 143.783 74.5339 144.375 74C144.974 73.4596 145.703 73.0365 146.562 72.7305C147.428 72.4245 148.415 72.2715 149.521 72.2715C150.003 72.2715 150.488 72.3008 150.977 72.3594C151.465 72.418 151.934 72.5026 152.383 72.6133C152.839 72.7174 153.265 72.8444 153.662 72.9941C154.059 73.1374 154.404 73.2969 154.697 73.4727L153.359 75.6504C152.728 75.3574 152.129 75.1426 151.562 75.0059C151.003 74.8691 150.433 74.8008 149.854 74.8008C149.189 74.8008 148.594 74.8887 148.066 75.0645C147.539 75.2337 147.09 75.4746 146.719 75.7871C146.354 76.0931 146.074 76.4577 145.879 76.8809C145.69 77.2975 145.596 77.7533 145.596 78.248C145.596 78.7428 145.697 79.2018 145.898 79.625C146.107 80.0417 146.396 80.403 146.768 80.709C147.145 81.0085 147.598 81.2461 148.125 81.4219C148.659 81.5911 149.251 81.6758 149.902 81.6758C150.618 81.6758 151.292 81.5749 151.924 81.373C152.562 81.1712 153.154 80.901 153.701 80.5625L155.039 82.7402C154.694 82.9486 154.32 83.1439 153.916 83.3262C153.512 83.502 153.079 83.6549 152.617 83.7852C152.161 83.9154 151.68 84.0163 151.172 84.0879C150.671 84.166 150.15 84.2051 149.609 84.2051C148.509 84.2051 147.523 84.0553 146.65 83.7559C145.778 83.4564 145.039 83.043 144.434 82.5156C143.828 81.9818 143.363 81.3535 143.037 80.6309C142.718 79.9082 142.559 79.1204 142.559 78.2676ZM158.164 67.7988H161.055V77.3691L166.445 72.4766H170.869L164.844 77.8672L171.25 84H166.914L162.627 79.8496L161.055 81.2559V84H158.164V67.7988Z" fill="black"/>
<path d="M87.9574 0.32752C89.289 0.976776 90.5639 1.70944 91.8426 2.45653C92.2203 2.6737 92.5981 2.89087 92.9873 3.11463C94.1838 3.80398 95.3772 4.4984 96.5702 5.19383C97.3196 5.62865 98.069 6.06343 98.8185 6.49814C100.677 7.57842 102.533 8.66365 104.389 9.75033C106.462 10.9637 108.537 12.1727 110.613 13.3823C111.373 13.8259 112.134 14.2694 112.895 14.713C113.214 14.8992 113.533 15.0854 113.862 15.2772C114.2 15.4742 114.2 15.4742 114.545 15.6751C114.099 17.0107 113.856 17.0825 112.659 17.7266C112.356 17.8919 112.053 18.0572 111.741 18.2274C111.423 18.3966 111.105 18.5657 110.777 18.74C110.457 18.9134 110.137 19.0869 109.808 19.2656C109.017 19.6941 108.224 20.1192 107.43 20.5414C107.933 21.6563 108.497 22.4566 109.346 23.3343C109.687 23.6919 109.687 23.6919 110.035 24.0566C110.39 24.4243 110.39 24.4243 110.753 24.7994C111.222 25.2844 111.689 25.7708 112.155 26.2588C112.362 26.4727 112.569 26.6866 112.782 26.9071C113.579 27.8382 114.239 28.8799 114.919 29.8997C112.571 31.2585 110.223 32.6174 107.804 34.0174C109.485 36.2574 110.984 37.9851 112.982 39.859C113.802 40.7624 114.176 41.4746 114.545 42.627C111.265 44.71 107.907 46.6348 104.52 48.5364C101.785 50.0742 99.0681 51.6412 96.3596 53.2253C95.7955 53.554 95.7955 53.554 95.22 53.8894C93.6073 54.8298 91.9974 55.7735 90.3988 56.7375C90.0339 56.9545 90.0339 56.9545 89.6617 57.1757C89.043 57.5437 88.4269 57.9161 87.8112 58.289C86.6708 58.7958 86.4782 58.7487 85.3362 58.3489C84.6228 57.9798 83.9203 57.5893 83.2254 57.1864C82.8052 56.9443 82.3849 56.7022 81.952 56.4527C81.7293 56.3233 81.5067 56.1939 81.2773 56.0606C80.0959 55.3742 78.9111 54.6935 77.7269 54.0119C77.4856 53.8729 77.2444 53.7338 76.9958 53.5905C74.6621 52.2468 72.3124 50.9323 69.9596 49.6223C66.0739 47.4558 62.2164 45.2443 58.3745 43.0013C58.8267 41.6452 59.1303 41.5497 60.3419 40.8679C60.6617 40.6858 60.9815 40.5036 61.311 40.3159C61.6472 40.129 61.9834 39.942 62.3298 39.7493C62.6674 39.558 63.0051 39.3667 63.353 39.1695C64.1883 38.6968 65.0252 38.2274 65.8638 37.7607C64.1628 35.7067 62.3358 33.842 60.4026 32.0075C60.1943 31.8046 59.986 31.6017 59.7714 31.3927C59.4899 31.1236 59.4899 31.1236 59.2027 30.8492C58.6705 30.1746 58.5267 29.6147 58.3745 28.7767C59.4808 28.1503 60.5891 27.5273 61.6979 26.9051C62.0131 26.7265 62.3283 26.548 62.6531 26.364C62.9548 26.1951 63.2564 26.0263 63.5673 25.8523C63.8458 25.6954 64.1242 25.5386 64.4111 25.377C65.1149 25.0334 65.1149 25.0334 65.8638 25.0334C63.8537 22.4804 61.8032 20.1578 59.4496 17.9196C58.7489 17.1724 58.7489 17.1724 58.7489 16.4238C58.5018 16.3002 58.2546 16.1767 58 16.0494C62.6343 13.2286 67.3351 10.5252 72.0385 7.82165C73.3776 7.05175 74.7156 6.28018 76.0535 5.50821C76.2736 5.38117 76.4938 5.25414 76.7206 5.12325C77.3691 4.74907 78.0175 4.37486 78.666 4.00065C81.0055 2.65065 81.0055 2.65065 82.1259 2.01146C82.7139 1.66915 83.2961 1.31654 83.867 0.946592C85.4087 -0.0385578 86.2154 -0.272008 87.9574 0.32752Z" fill="black"/>
<path d="M87.9574 0.327519C89.289 0.976776 90.5639 1.70944 91.8426 2.45653C92.2203 2.6737 92.5981 2.89087 92.9873 3.11463C94.1838 3.80398 95.3772 4.4984 96.5702 5.19383C97.3196 5.62865 98.069 6.06343 98.8185 6.49814C100.677 7.57842 102.533 8.66365 104.389 9.75033C106.462 10.9637 108.537 12.1727 110.613 13.3823C111.373 13.8259 112.134 14.2694 112.895 14.713C113.214 14.8992 113.533 15.0854 113.862 15.2772C114.2 15.4742 114.2 15.4742 114.545 15.6751C114.078 17.0737 113.736 17.1384 112.457 17.8012C112.096 17.992 111.734 18.1828 111.361 18.3794C110.967 18.5833 110.574 18.7872 110.168 18.9973C107.092 20.6255 104.052 22.2905 101.064 24.0742C100.569 24.3689 100.569 24.3689 100.065 24.6696C99.3848 25.075 98.7053 25.4807 98.0258 25.8866C96.0402 27.0696 94.0474 28.24 92.0532 29.4084C91.6721 29.6332 91.291 29.8581 90.8983 30.0897C90.5414 30.2987 90.1844 30.5076 89.8166 30.7229C89.5023 30.9076 89.1881 31.0923 88.8643 31.2825C87.0326 32.2699 87.0326 32.2699 86.0851 32.52C85.1333 32.1787 85.1333 32.1787 84.1148 31.5623C83.7315 31.3354 83.3483 31.1085 82.9535 30.8747C82.3372 30.4963 82.3372 30.4963 81.7085 30.1103C81.2754 29.8511 80.8419 29.5926 80.4079 29.3348C79.5045 28.7974 78.6029 28.2569 77.7025 27.7144C75.601 26.4524 73.4684 25.2441 71.3404 24.0274C61.3146 18.2584 61.3146 18.2584 58 16.0494C62.6343 13.2286 67.3351 10.5252 72.0385 7.82164C73.3776 7.05175 74.7156 6.28018 76.0535 5.50821C76.2736 5.38117 76.4938 5.25414 76.7206 5.12325C77.3691 4.74907 78.0175 4.37486 78.666 4.00065C81.0055 2.65065 81.0055 2.65065 82.1259 2.01146C82.7139 1.66915 83.2961 1.31654 83.867 0.946592C85.4087 -0.0385578 86.2154 -0.272008 87.9574 0.327519Z" fill="#525252"/>
<path d="M66.676 38.0421C67.5334 38.6256 68.1178 39.2856 68.7899 40.0767C70.5386 42.074 72.3965 43.9397 74.2925 45.7972C75.4422 46.9309 76.548 48.0781 77.6001 49.3033C79.2047 51.1631 80.9471 52.8783 82.692 54.6054C83.0195 54.9311 83.3471 55.2568 83.6845 55.5924C84.484 56.3873 85.2844 57.1812 86.0856 57.9744C85.7149 58.1597 85.7149 58.1597 85.3367 58.3487C84.4377 57.9246 84.4377 57.9246 83.2991 57.2594C82.8764 57.0148 82.4538 56.7702 82.0183 56.5183C81.5564 56.2472 81.0944 55.9761 80.6324 55.705C79.9167 55.2894 79.2002 54.8749 78.4838 54.4605C77.9942 54.1772 77.5048 53.8936 77.0157 53.6096C74.6785 52.2541 72.3214 50.9353 69.9601 49.6221C66.0744 47.4558 62.2169 45.2441 58.375 43.0011C58.9826 41.1791 60.6289 40.6314 62.2367 39.7023C62.7244 39.4059 62.7244 39.4059 63.2219 39.1035C63.5364 38.9204 63.8508 38.7373 64.1749 38.5486C64.4627 38.3793 64.7506 38.2101 65.0471 38.0357C65.8644 37.7605 65.8644 37.7605 66.676 38.0421Z" fill="#525252"/>
<path d="M65.8644 24.6592C68.1849 26.6475 70.3204 28.5909 72.3005 30.9058C73.4646 32.2586 74.706 33.5132 75.975 34.7661C77.1972 35.973 78.3972 37.175 79.509 38.4861C81.4307 40.748 83.5995 42.7908 85.7112 44.8731C84.3971 44.8731 83.9464 44.5753 82.8281 43.9109C82.2947 43.5968 82.2947 43.5968 81.7505 43.2762C81.3661 43.0466 80.9817 42.8169 80.5856 42.5803C79.766 42.0962 78.9464 41.6122 78.1267 41.1283C77.7067 40.8793 77.2867 40.6302 76.8539 40.3736C75.2979 39.4535 73.7358 38.5438 72.1728 37.6356C71.0627 36.9903 69.954 36.3427 68.8455 35.6946C67.3053 34.7944 65.7621 33.8995 64.2173 33.0071C63.4556 32.5641 62.694 32.1211 61.9324 31.6779C61.5742 31.4723 61.216 31.2667 60.8469 31.0549C60.5216 30.8648 60.1963 30.6747 59.8612 30.4789C59.5732 30.3123 59.2853 30.1457 58.9886 29.974C58.7861 29.826 58.5836 29.678 58.375 29.5255C58.375 29.2784 58.375 29.0314 58.375 28.7768C60.8465 27.418 63.318 26.0592 65.8644 24.6592Z" fill="#525252"/>
</svg>
